<?xml version="1.0" encoding="utf-8" ?>
<svg xmlns="http://www.w3.org/2000/svg" xmlns:xlink="http://www.w3.org/1999/xlink" width="1024" height="1024">
	<path transform="scale(2 2)" d="M354.528 429.013C349.88 429.186 345.176 429.018 340.522 429.018L180.616 429.017C172.027 429.022 162.08 429.677 153.676 428.411C139.872 426.331 127.394 412.385 126.353 398.65C125.899 392.662 126.254 386.42 126.262 380.4L126.259 125.639C126.259 120.864 125.93 115.814 126.406 111.077C128.099 94.2511 142.562 83.4514 158.769 82.2961L333.355 82.2899C346.853 82.2849 361.629 80.4995 372.872 89.712C386.846 101.163 385.726 114.762 385.722 130.82L385.723 379.472C385.732 392.549 386.957 405.814 378.08 416.61C371.847 424.191 364.228 428.084 354.528 429.013ZM159.535 92.5465C137.179 93.9772 136.506 109.892 136.522 127.629L136.534 376.644C136.516 392.291 134.375 415.532 156.222 418.359C162.615 419.187 170.453 418.64 177 418.634L352.387 418.627C374.89 417.368 375.777 399.789 375.75 383.219L375.73 135.578C375.732 119.099 378.126 96.0006 355.404 92.8919C348.662 91.9695 340.996 92.5494 334.155 92.5496L159.535 92.5465Z"/>
	<path transform="scale(2 2)" d="M324.375 221.309L186.37 221.302C164.565 221.318 157.632 221.571 157.661 197.17L157.622 131.751C157.558 112.369 172.075 113.818 187.064 113.833L324.916 113.824C340.093 113.792 354.403 112.021 354.536 132.094L354.546 199.216C354.553 215.239 351.829 221.341 334.464 221.332L324.375 221.309ZM174.799 124.181C164.778 124.537 167.643 135.045 167.649 143.014L167.65 191.583C167.645 198.554 165.042 211.026 174.352 211.515C183.308 211.986 192.54 211.559 201.516 211.558L329.362 211.562C332.347 211.563 335.372 211.703 338.35 211.557C347.074 210.873 344.498 200.382 344.52 194.388L344.565 141.667C344.569 135.087 347.083 124.368 337.544 124.099C327.566 123.818 317.457 124.184 307.463 124.184L181.963 124.161C179.6 124.158 177.152 124.023 174.799 124.181Z"/>
	<path transform="scale(2 2)" d="M288.869 181.569C290.144 179.63 290.686 177.222 292.058 175.396C295.489 170.832 303.716 177.673 292.433 188.002C284.789 195 273.153 193.474 266.507 185.906C256.257 174.234 259.917 141.432 279.589 142.756C292.981 137.258 304.621 162.69 294.451 161.253C292.509 160.978 284.103 140.245 273.007 152.118C259.806 166.245 274.654 198.032 288.869 181.569Z"/>
	<path transform="scale(2 2)" d="M223.021 180.217C221.703 183.308 220.462 188.67 217.877 190.806C215.38 192.868 212.175 190.355 212.808 187.308C213.286 185.006 214.65 182.456 215.574 180.274L226.52 153.51C227.715 150.442 228.897 144.738 231.713 142.756C236.821 142.468 238.187 150.449 239.679 154.143C243.824 164.408 250.188 176.574 253.564 186.593C254.523 189.439 252.756 192.239 249.656 191.291C246.356 190.282 244.775 183.325 243.244 180.217L235.11 180.217L223.021 180.217ZM233.375 156.205C230.294 161.571 228.175 167.521 225.836 173.241L233.375 173.241L240.266 173.241C238.725 169.628 235.043 158.918 233.375 156.205Z"/>
	<path transform="scale(2 2)" d="M225.836 320.301L196.983 320.314C170.17 320.318 169.847 317.904 169.825 294.175C169.812 280.344 166.055 262.419 185.015 260.237L212.479 260.225C239.768 260.22 240.244 263.429 240.251 290.742C240.254 303.608 242.694 317.656 225.836 320.301ZM218.678 270.352C213.914 270.348 183.875 269.646 181.622 271.291C178.317 273.706 179.438 307.309 180.802 308.896C182.582 310.967 188.597 310.257 191.125 310.203L214.608 310.222C230.888 310.23 229.993 312.256 230.023 294.413C230.033 288.568 230.183 282.676 230.008 276.835C229.777 269.133 225.025 270.263 218.678 270.352Z"/>
	<path transform="scale(2 2)" d="M329.761 320.301L301.495 320.312C291.122 320.308 275.094 322.42 272.47 308.613C271.812 305.147 271.775 276.901 272.39 273.082C273.536 265.966 278.88 261.472 285.881 260.237L314.626 260.221C325.09 260.225 339.396 258.267 342.4 271.866C343.422 276.496 343.442 302.659 342.636 308.139C341.642 314.895 336.255 319.009 329.761 320.301ZM288.119 270.352C285.522 270.544 283.914 271.24 282.332 273.303C282.142 279.704 282.329 286.15 282.316 292.558C282.275 313.058 281.21 310.217 300.996 310.216L327.618 310.203C329.343 309.967 331.049 309.614 332.189 308.178C333.133 306.988 333.388 277.434 332.659 273.844C331.539 268.323 317.268 270.361 313.304 270.374L288.119 270.352Z"/>
	<path transform="scale(2 2)" d="M213.49 295.496C209.121 295.514 195.974 296.257 192.688 294.733C187.962 292.54 190.298 286.745 194.448 285.615C198.251 285.601 222.912 282.868 216.983 292.92C216.101 294.417 215.162 295.079 213.49 295.496Z"/>
	<path transform="scale(2 2)" d="M295.135 295.496C290.589 291.442 292.232 285.989 298.185 285.615L310.991 285.589C313.442 285.587 316.04 285.408 318.465 285.74C325.804 286.746 325.169 294.626 318.549 295.496L304.809 295.512C301.597 295.541 298.337 295.729 295.135 295.496Z"/>
	<path transform="scale(2 2)" d="M194.448 393.497C187.529 393.407 179.527 395.101 174.039 389.845C167.614 383.691 169.807 367.43 169.794 358.827C169.752 332.741 170.683 329.881 195.568 329.889L215.564 329.908L216.664 329.887C229.848 329.661 240.132 330.824 240.264 346.604L240.297 366.44C240.3 387.5 239.966 393.569 215.356 393.515L194.448 393.497ZM183.817 339.963C180.844 340.815 180.128 342.154 179.912 345.088C179.598 349.352 179.409 378.035 180.183 380.6C181.533 385.082 188.857 383.402 192.5 383.384L210.575 383.374C214.645 383.38 222.28 383.975 225.836 383.377C232.449 380.054 229.937 366.737 229.968 360.159C230.072 337.991 233.493 339.929 213.057 339.957L183.817 339.963Z"/>
	<path transform="scale(2 2)" d="M327.618 393.497L299.819 393.512C271.589 393.519 272.064 391.081 272.091 361.416C272.103 348.244 268.919 331.279 287.337 329.908C292.026 329.444 299.433 329.893 304.493 329.905L319.363 329.897C348.466 329.9 342.875 343.532 342.932 366.085C342.964 378.799 345.081 392.429 327.618 393.497ZM285.1 339.963C280.365 343.147 282.319 353.492 282.316 358.943C282.313 365.064 281.83 373.586 282.508 379.48C283.218 385.65 296.028 383.383 300.326 383.384C310.134 383.387 319.955 383.487 329.761 383.377C330.922 382.74 332.27 382.054 332.665 380.674C333.147 378.993 332.969 349.309 332.759 345.628C332.571 342.331 332.277 340.597 328.66 340.096C319.609 338.843 294.481 339.548 285.1 339.963Z"/>
	<path transform="scale(2 2)" d="M200.766 357.054C200.733 352.463 199.932 348.055 205.087 346.292C211.806 345.942 211.348 352.057 211.264 357.054C215.395 357.137 227.797 358.386 220.933 365.575C218.646 367.971 214.295 367.381 211.264 367.395C211.243 371.841 212.15 376.756 207.539 379.141C200.044 380.365 200.711 372.513 200.766 367.395C198.062 367.376 193.823 368.011 191.648 366.149C189.74 364.514 189.493 360.212 191.285 358.404C193.283 356.389 198.136 357.029 200.766 357.054Z"/>
	<path transform="scale(2 2)" d="M307.602 365.927Q307.476 365.963 307.349 365.992Q307.221 366.021 307.092 366.045Q306.964 366.068 306.834 366.084Q306.704 366.101 306.574 366.111Q306.443 366.122 306.312 366.125Q306.182 366.129 306.051 366.127Q305.92 366.124 305.789 366.115Q305.659 366.106 305.529 366.09Q305.399 366.075 305.27 366.053Q305.141 366.031 305.013 366.003Q304.886 365.974 304.76 365.94Q304.633 365.905 304.509 365.865Q304.385 365.824 304.262 365.777Q304.14 365.73 304.021 365.677Q303.901 365.625 303.784 365.566Q303.667 365.507 303.553 365.443Q303.439 365.379 303.328 365.309Q303.218 365.239 303.111 365.164Q303.004 365.088 302.901 365.008Q302.797 364.928 302.698 364.842Q302.599 364.757 302.504 364.667Q302.41 364.576 302.319 364.482Q302.229 364.387 302.144 364.288Q302.058 364.188 301.978 364.085Q301.898 363.982 301.822 363.875Q301.747 363.768 301.677 363.657Q301.608 363.547 301.543 363.433Q301.479 363.319 301.42 363.202Q301.362 363.085 301.309 362.965Q301.256 362.845 301.21 362.723Q301.163 362.601 301.122 362.477Q301.081 362.352 301.047 362.226Q301.013 362.1 300.984 361.972Q300.956 361.844 300.934 361.715Q300.912 361.586 300.897 361.456Q300.881 361.327 300.872 361.196Q300.863 361.066 300.861 360.935Q300.858 360.804 300.862 360.673Q300.866 360.542 300.876 360.412Q300.886 360.282 300.903 360.152Q300.92 360.022 300.943 359.893Q300.966 359.765 300.996 359.637Q301.025 359.51 301.061 359.384Q301.096 359.258 301.138 359.134Q301.18 359.01 301.228 358.888Q301.276 358.767 301.33 358.647Q301.384 358.528 301.443 358.412Q301.503 358.295 301.568 358.182Q301.634 358.069 301.705 357.959Q301.776 357.849 301.852 357.743Q301.928 357.636 302.009 357.534Q302.091 357.431 302.177 357.333Q302.263 357.235 302.355 357.141Q302.446 357.047 302.541 356.958Q302.637 356.868 302.737 356.784Q302.837 356.699 302.941 356.62Q303.044 356.54 303.152 356.466Q303.26 356.392 303.371 356.323Q303.482 356.254 303.597 356.191Q303.711 356.128 303.829 356.07Q303.947 356.013 304.067 355.961Q304.187 355.91 304.31 355.864Q304.432 355.818 304.557 355.779Q304.682 355.739 304.808 355.706Q304.933 355.673 305.06 355.646Q305.186 355.62 305.314 355.599Q305.441 355.578 305.57 355.564Q305.698 355.55 305.827 355.542Q305.956 355.534 306.086 355.532Q306.215 355.53 306.344 355.535Q306.473 355.539 306.602 355.55Q306.731 355.561 306.859 355.578Q306.987 355.595 307.115 355.619Q307.242 355.642 307.368 355.671Q307.494 355.701 307.618 355.737Q307.742 355.772 307.864 355.814Q307.987 355.856 308.107 355.903Q308.227 355.951 308.345 356.004Q308.463 356.058 308.578 356.117Q308.693 356.176 308.805 356.24Q308.917 356.305 309.026 356.375Q309.134 356.445 309.239 356.52Q309.345 356.595 309.446 356.676Q309.547 356.756 309.645 356.841Q309.742 356.926 309.835 357.016Q309.928 357.106 310.017 357.2Q310.105 357.294 310.189 357.392Q310.273 357.491 310.352 357.593Q310.431 357.696 310.505 357.802Q310.579 357.908 310.647 358.017Q310.716 358.127 310.779 358.24Q310.842 358.353 310.9 358.468Q310.958 358.584 311.01 358.702Q311.062 358.821 311.108 358.942Q311.154 359.062 311.194 359.185Q311.234 359.308 311.268 359.433Q311.302 359.558 311.33 359.684Q311.358 359.81 311.38 359.938Q311.402 360.065 311.417 360.193Q311.433 360.322 311.442 360.451Q311.451 360.58 311.454 360.709Q311.457 360.838 311.454 360.967Q311.45 361.097 311.441 361.226Q311.431 361.354 311.415 361.483Q311.399 361.611 311.377 361.738Q311.355 361.866 311.326 361.992Q311.298 362.118 311.263 362.243Q311.229 362.367 311.188 362.49Q311.148 362.613 311.102 362.733Q311.055 362.854 311.003 362.972Q310.95 363.091 310.892 363.206Q310.834 363.322 310.771 363.434Q310.707 363.547 310.638 363.656Q310.569 363.765 310.495 363.871Q310.421 363.977 310.342 364.079Q310.262 364.181 310.178 364.28Q310.094 364.378 310.005 364.471Q309.916 364.565 309.823 364.655Q309.73 364.744 309.632 364.829Q309.534 364.914 309.433 364.994Q309.331 365.074 309.226 365.149Q309.12 365.224 309.012 365.293Q308.903 365.363 308.79 365.427Q308.678 365.491 308.563 365.55Q308.448 365.609 308.33 365.662Q308.212 365.715 308.092 365.762Q307.971 365.809 307.849 365.85Q307.726 365.892 307.602 365.927Z"/>
</svg>
