<?xml version="1.0" encoding="utf-8"?>
<!-- Generator: Adobe Illustrator 27.5.0, SVG Export Plug-In . SVG Version: 6.00 Build 0)  -->
<svg version="1.1" id="icon" xmlns="http://www.w3.org/2000/svg" xmlns:xlink="http://www.w3.org/1999/xlink" x="0px" y="0px"
	 viewBox="0 0 32 32" style="enable-background:new 0 0 32 32;" xml:space="preserve">
<style type="text/css">
	.st0{fill:none;}
</style>
<rect x="21" y="15" width="2" height="2"/>
<path d="M24,23h-4c-1.1,0-2-0.9-2-2V11c0-1.1,0.9-2,2-2h4c1.1,0,2,0.9,2,2v10C26,22.1,25.1,23,24,23z M20,11L20,11v10h4V11H20z"/>
<rect x="11" y="15" width="2" height="2"/>
<path d="M14,23h-4c-1.1,0-2-0.9-2-2V11c0-1.1,0.9-2,2-2h4c1.1,0,2,0.9,2,2v10C16,22.1,15.1,23,14,23z M10,11L10,11v10h4V11H10z"/>
<rect x="4" y="21" width="2" height="2"/>
<rect id="_Transparent_Rectangle_" class="st0" width="32" height="32"/>
</svg>
