<svg width="15" height="20" viewBox="0 0 15 20" fill="none" xmlns="http://www.w3.org/2000/svg">
<g clip-path="url(#clip0_1_296)">
<path d="M6.62241 19.5965C1.03679 11.3684 0 10.5239 0 7.5C0 3.35785 3.30455 0 7.38095 0C11.4574 0 14.7619 3.35785 14.7619 7.5C14.7619 10.5239 13.7251 11.3684 8.1395 19.5965C7.77295 20.1345 6.98892 20.1345 6.62241 19.5965ZM7.38095 10.625C9.07946 10.625 10.4563 9.2259 10.4563 7.5C10.4563 5.7741 9.07946 4.375 7.38095 4.375C5.68245 4.375 4.30556 5.7741 4.30556 7.5C4.30556 9.2259 5.68245 10.625 7.38095 10.625Z" fill="#747474"/>
</g>
<defs>
<clipPath id="clip0_1_296">
<rect width="14.7619" height="20" fill="white"/>
</clipPath>
</defs>
</svg>
