<?xml version="1.0" encoding="utf-8" ?>
<svg xmlns="http://www.w3.org/2000/svg" xmlns:xlink="http://www.w3.org/1999/xlink" width="1024" height="1024">
	<path fill="#279EE5" transform="scale(2 2)" d="M119.544 63.0371L385.188 63.0148C401.054 62.9826 416.678 66.8251 419.049 86.1093C419.725 91.6128 419.621 97.2832 419.619 102.818L419.655 418.344C419.761 434.923 410.113 448.141 392.762 448.25L127.375 448.27C90.5871 448.625 92.344 425.446 92.3438 396.01L92.3442 104.208C92.3387 93.1409 90.8085 81.9706 98.7623 72.9588C104.505 66.4524 111.024 63.5235 119.544 63.0371Z"/>
	<path fill="#FEFEFE" transform="scale(2 2)" d="M311.092 77.9118L385.881 77.881C396.119 77.8306 404.334 79.0229 404.517 91.5103C404.863 115.215 404.504 138.978 404.505 162.69L404.517 410.326C404.555 436.451 401.584 433.342 380.285 433.326L200.688 433.329L128.295 433.348C108.299 433.365 107.922 429.1 107.933 408.722L107.886 92.5464C107.844 73.7167 126.396 77.9053 139.295 77.9068L311.092 77.9118Z"/>
	<path fill="#279EE5" transform="scale(2 2)" d="M330.876 103.416L360.252 103.41C376.236 103.382 378.872 100.062 378.813 118.519L378.81 154.798C378.815 160.616 380.548 170.952 372.31 171.683C366.433 172.204 358.171 171.742 352.06 171.74L179.625 171.744L151.24 171.767C143.736 171.772 132.744 174.364 132.381 163.548C132.027 152.979 132.445 142.252 132.424 131.667L132.399 118.518C132.379 98.39 140.141 103.403 157.475 103.419L330.876 103.416Z"/>
	<path fill="#FEFEFE" transform="scale(2 2)" d="M147.701 118.444L364.266 118.444C364.005 131.195 364.266 143.998 364.266 156.755L147.701 156.755L147.701 118.444Z"/>
	<path fill="#279EE5" transform="scale(2 2)" d="M315.169 271.455C318.375 271.291 321.661 271.446 324.877 271.445L362.192 271.444C382.555 271.452 378.854 274.21 378.79 292.486L378.777 374.868C378.769 383.01 382.487 405.293 373.497 407.495L322.782 407.49C305.109 407.659 308.936 401.531 309.003 387.131L308.99 306.229C308.988 298.155 305.029 272.366 315.169 271.455Z"/>
	<path fill="#FEFEFE" transform="scale(2 2)" d="M323.757 285.741L364.266 285.741L364.266 392.737C359.835 392.975 355.257 392.744 350.812 392.743L323.757 392.737L323.757 285.741Z"/>
	<path fill="#279EE5" transform="scale(2 2)" d="M334.443 356.773L349.337 356.773L349.337 383.971C344.675 383.553 339.164 383.847 334.443 383.971L334.443 356.773Z"/>
	<path fill="#279EE5" transform="scale(2 2)" d="M224.521 271.455L266.705 271.461C292.633 271.451 291.946 266.97 291.975 294.303C291.985 303.435 295.779 330.718 287.559 334.5C268.992 335.252 245.606 335.161 227.011 334.498C223.962 334.39 221.827 333.767 220.581 330.706C219.711 328.568 219.885 282.601 220.122 277.444C220.259 274.456 221.652 272.543 224.521 271.455Z"/>
	<path fill="#FEFEFE" transform="scale(2 2)" d="M234.725 285.741L277.293 285.741L277.293 319.972C263.111 319.809 248.91 319.964 234.725 319.972C234.547 316.133 234.707 312.208 234.71 308.363L234.725 285.741Z"/>
	<path fill="#279EE5" transform="scale(2 2)" d="M246.746 294.621L265.738 294.621L265.738 309.526L246.746 309.526C246.774 304.696 246.196 299.39 246.746 294.621Z"/>
	<path fill="#279EE5" transform="scale(2 2)" d="M226.198 198.278C233.51 198.188 285.292 197.151 288.906 199.48C292.863 202.03 292.033 206.644 292.017 210.663L292.018 243.596C292.026 249.462 294.17 259.496 286.312 260.956C268.365 261.482 245.299 261.842 227.424 260.906C224.064 260.73 221.675 260.107 220.475 256.581C219.688 254.27 219.243 204.229 220.717 201.662C221.887 199.626 224.012 198.762 226.198 198.278Z"/>
	<path fill="#FEFEFE" transform="scale(2 2)" d="M234.725 213.376L277.293 213.376L277.293 245.987L234.725 245.987L234.725 213.376Z"/>
	<path fill="#279EE5" transform="scale(2 2)" d="M246.746 221.508L265.738 221.508L265.738 235.997L246.746 235.997L246.746 221.508Z"/>
	<path fill="#279EE5" transform="scale(2 2)" d="M227.456 345.117L267.593 345.125C277.408 345.123 291.438 341.034 291.95 353.243C292.365 363.155 291.942 373.201 291.97 383.127C291.989 390.385 295.36 407.13 285.062 407.495L232.453 407.524C217.949 407.61 220.058 404.56 220.094 391.192L220.084 358.9C220.067 351.974 218.704 345.509 227.456 345.117Z"/>
	<path fill="#FEFEFE" transform="scale(2 2)" d="M238.468 359.977L277.293 359.977C277.047 363.603 277.272 367.407 277.275 371.049L277.293 392.737L273.833 392.737L234.725 392.737L234.725 359.977L238.468 359.977Z"/>
	<path fill="#279EE5" transform="scale(2 2)" d="M261.829 368.494L265.208 368.494L265.208 383.971L250.646 383.971L246.746 383.971L246.746 368.494L261.829 368.494Z"/>
	<path fill="#279EE5" transform="scale(2 2)" d="M137.235 271.455C140.997 271.181 144.903 271.437 148.68 271.45L187.966 271.453C194.305 271.455 202.378 269.55 202.912 278.3C203.355 285.544 203.653 325.906 202.508 330.355C201.992 332.36 200.532 333.522 198.802 334.5C196.16 334.755 193.323 334.524 190.66 334.519L151.016 334.512C130.155 334.623 133.055 333.737 133.045 314.514L133.045 292.199C133.038 284.592 130.189 275.232 137.235 271.455Z"/>
	<path fill="#FEFEFE" transform="scale(2 2)" d="M147.701 285.741L188.153 285.741L188.153 319.972C174.691 320.25 161.169 319.978 147.701 319.972L147.701 285.741Z"/>
	<path fill="#279EE5" transform="scale(2 2)" d="M138.361 198.278C150.085 198.019 161.874 198.286 173.604 198.289C179.435 198.29 200.665 195.587 202.497 202.44C203.631 206.686 203.324 247.077 202.86 253.801C202.603 257.519 201.56 259.871 197.733 260.956C195.331 261.348 192.704 261.017 190.272 260.99L152.607 260.963C148.304 260.97 143.899 261.176 139.609 260.944C130.512 260.45 133.032 250.829 133.039 244.415L133.048 219.718C133.046 212.624 130.043 200.148 138.361 198.278Z"/>
	<path fill="#FEFEFE" transform="scale(2 2)" d="M147.701 213.376L188.153 213.376L188.153 245.987C183.973 246.373 179.45 246.008 175.227 246.005L147.701 245.987C147.504 242.295 147.685 238.517 147.688 234.815L147.701 213.376Z"/>
	<path fill="#279EE5" transform="scale(2 2)" d="M165.072 217.267Q165.37 217.209 165.671 217.166Q165.972 217.123 166.275 217.095Q166.578 217.067 166.881 217.053Q167.185 217.04 167.489 217.041Q167.793 217.043 168.097 217.059Q168.4 217.075 168.703 217.107Q169.005 217.138 169.306 217.184Q169.606 217.23 169.904 217.29Q170.202 217.351 170.497 217.426Q170.791 217.501 171.082 217.591Q171.372 217.68 171.658 217.783Q171.944 217.887 172.224 218.004Q172.505 218.122 172.779 218.253Q173.053 218.384 173.321 218.528Q173.589 218.672 173.849 218.829Q174.109 218.987 174.361 219.156Q174.613 219.326 174.857 219.508Q175.101 219.69 175.335 219.883Q175.57 220.077 175.794 220.282Q176.019 220.487 176.233 220.702Q176.448 220.918 176.651 221.143Q176.855 221.369 177.047 221.605Q177.239 221.84 177.42 222.085Q177.6 222.329 177.769 222.583Q177.937 222.836 178.093 223.097Q178.248 223.358 178.391 223.626Q178.534 223.895 178.663 224.17Q178.793 224.445 178.909 224.726Q179.025 225.007 179.127 225.293Q179.228 225.58 179.316 225.871Q179.404 226.162 179.478 226.457Q179.551 226.752 179.61 227.05Q179.669 227.348 179.713 227.649Q179.758 227.95 179.787 228.252Q179.817 228.555 179.831 228.859Q179.846 229.162 179.846 229.466Q179.845 229.77 179.83 230.074Q179.815 230.377 179.785 230.68Q179.755 230.983 179.711 231.283Q179.666 231.584 179.607 231.882Q179.547 232.18 179.473 232.475Q179.399 232.77 179.311 233.061Q179.223 233.352 179.121 233.638Q179.018 233.924 178.902 234.205Q178.786 234.486 178.656 234.761Q178.526 235.036 178.383 235.304Q178.24 235.572 178.084 235.833Q177.928 236.094 177.759 236.347Q177.59 236.6 177.409 236.844Q177.229 237.088 177.036 237.324Q176.843 237.559 176.639 237.784Q176.436 238.01 176.221 238.225Q176.006 238.44 175.781 238.645Q175.556 238.849 175.322 239.043Q175.087 239.236 174.843 239.417Q174.599 239.599 174.347 239.768Q174.094 239.938 173.834 240.094Q173.573 240.251 173.306 240.395Q173.038 240.539 172.763 240.67Q172.489 240.8 172.208 240.917Q171.928 241.034 171.642 241.137Q171.356 241.24 171.065 241.329Q170.774 241.418 170.48 241.493Q170.185 241.568 169.887 241.628Q169.587 241.689 169.285 241.734Q168.983 241.78 168.679 241.811Q168.375 241.841 168.07 241.857Q167.765 241.873 167.459 241.874Q167.153 241.875 166.848 241.86Q166.543 241.846 166.239 241.817Q165.934 241.787 165.632 241.743Q165.33 241.699 165.03 241.64Q164.73 241.581 164.433 241.507Q164.137 241.433 163.844 241.345Q163.551 241.257 163.264 241.154Q162.976 241.052 162.693 240.935Q162.411 240.819 162.134 240.688Q161.858 240.558 161.588 240.414Q161.318 240.271 161.056 240.114Q160.794 239.957 160.54 239.787Q160.285 239.618 160.04 239.436Q159.794 239.254 159.558 239.06Q159.321 238.867 159.095 238.661Q158.868 238.456 158.652 238.24Q158.436 238.024 158.231 237.798Q158.025 237.571 157.831 237.335Q157.638 237.099 157.456 236.854Q157.273 236.608 157.104 236.354Q156.934 236.1 156.777 235.838Q156.62 235.575 156.476 235.306Q156.332 235.036 156.201 234.76Q156.071 234.484 155.954 234.201Q155.837 233.919 155.735 233.631Q155.632 233.343 155.544 233.05Q155.455 232.758 155.381 232.461Q155.307 232.165 155.248 231.865Q155.189 231.565 155.144 231.263Q155.1 230.96 155.07 230.656Q155.041 230.352 155.026 230.047Q155.012 229.742 155.012 229.436Q155.013 229.13 155.028 228.825Q155.044 228.52 155.075 228.216Q155.105 227.912 155.151 227.61Q155.196 227.307 155.256 227.008Q155.317 226.708 155.392 226.412Q155.467 226.116 155.556 225.823Q155.646 225.531 155.749 225.244Q155.853 224.956 155.971 224.674Q156.089 224.392 156.22 224.116Q156.351 223.84 156.496 223.571Q156.641 223.302 156.799 223.041Q156.957 222.779 157.128 222.525Q157.298 222.272 157.481 222.027Q157.664 221.782 157.859 221.547Q158.054 221.311 158.26 221.085Q158.466 220.86 158.683 220.644Q158.9 220.429 159.127 220.225Q159.354 220.02 159.591 219.828Q159.828 219.635 160.074 219.454Q160.321 219.273 160.575 219.104Q160.83 218.935 161.093 218.779Q161.356 218.623 161.626 218.481Q161.896 218.338 162.173 218.208Q162.45 218.079 162.733 217.963Q163.016 217.848 163.304 217.746Q163.592 217.645 163.885 217.558Q164.178 217.47 164.475 217.398Q164.772 217.325 165.072 217.267Z"/>
	<path fill="#279EE5" transform="scale(2 2)" d="M315.169 198.278L353.85 198.267C362.29 198.268 378.258 194.738 378.802 206.534C379.445 220.498 379.403 239.829 378.796 253.846C378.634 257.581 377.039 259.502 373.497 260.956C370.661 261.161 367.719 260.978 364.871 260.975L327.349 260.935C322.677 260.949 311.27 262.853 309.411 257C308.388 253.781 308.735 210.845 309.059 204.473C309.257 200.568 311.529 199.254 315.169 198.278Z"/>
	<path fill="#FEFEFE" transform="scale(2 2)" d="M343.992 213.376L364.266 213.376L364.266 245.987L344.768 245.987L323.757 245.987L323.757 213.376L343.992 213.376Z"/>
	<path fill="#279EE5" transform="scale(2 2)" d="M335.787 221.508L353.985 221.508L353.985 235.997L335.787 235.997L335.787 221.508Z"/>
	<path fill="#279EE5" transform="scale(2 2)" d="M138.361 345.117L179.582 345.109C203.704 345.109 202.969 341.068 202.969 366.239L202.961 389.777C202.954 395.92 204.929 403.799 198.802 407.495C196.11 407.691 193.305 407.516 190.601 407.512L174.254 407.493C167.173 407.486 136.488 410.389 133.644 404.14C132.54 401.716 132.862 357.796 133.128 352.035C133.319 347.906 134.328 346.579 138.361 345.117Z"/>
	<path fill="#FEFEFE" transform="scale(2 2)" d="M150.766 359.977L188.153 359.977L188.161 380.772C188.161 384.227 189.705 392.697 186.312 392.737L147.701 392.737L147.696 372.854C147.693 367.513 145.504 360.314 150.766 359.977Z"/>
	<path fill="#279EE5" transform="scale(2 2)" d="M159.409 368.494L176.846 368.494L176.846 383.971L159.409 383.971L159.409 368.494Z"/>
</svg>
